<svg width="256" height="256" viewBox="0 0 256 256" fill="none" xmlns="http://www.w3.org/2000/svg">
  <defs>
    <linearGradient id="bg" x1="40" y1="28" x2="216" y2="228" gradientUnits="userSpaceOnUse">
      <stop stop-color="#39B7C8"/>
      <stop offset="1" stop-color="#225FA7"/>
    </linearGradient>
    <linearGradient id="panel" x1="64" y1="52" x2="192" y2="200" gradientUnits="userSpaceOnUse">
      <stop stop-color="#F7FBFF" stop-opacity="0.96"/>
      <stop offset="1" stop-color="#DCEFFE" stop-opacity="0.92"/>
    </linearGradient>
    <linearGradient id="wave" x1="74" y1="148" x2="182" y2="110" gradientUnits="userSpaceOnUse">
      <stop stop-color="#2FC7A4"/>
      <stop offset="1" stop-color="#1F90A8"/>
    </linearGradient>
  </defs>
  <rect x="20" y="20" width="216" height="216" rx="56" fill="url(#bg)"/>
  <rect x="34" y="34" width="188" height="188" rx="44" fill="#0F3552" fill-opacity="0.16"/>
  <path d="M74 176C74 173.791 75.7909 172 78 172H178C180.209 172 182 173.791 182 176V182C182 184.209 180.209 186 178 186H78C75.7909 186 74 184.209 74 182V176Z" fill="#0D2740" fill-opacity="0.24"/>
  <path d="M88 70C88 61.1634 95.1634 54 104 54H166C174.837 54 182 61.1634 182 70V140C182 148.837 174.837 156 166 156H90C81.1634 156 74 148.837 74 140V84.5L88 70Z" fill="url(#panel)"/>
  <path d="M74 84L87.2 84C90.4032 84 93 81.4032 93 78.2V54L74 84Z" fill="#B7D8F3"/>
  <rect x="94" y="78" width="66" height="12" rx="6" fill="#2A4D68" fill-opacity="0.18"/>
  <rect x="94" y="96" width="50" height="10" rx="5" fill="#2A4D68" fill-opacity="0.12"/>
  <rect x="94" y="114" width="38" height="10" rx="5" fill="#2A4D68" fill-opacity="0.12"/>
  <path d="M80 145C90 145 90 111 100 111C110 111 110 151 120 151C130 151 130 92 140 92C150 92 150 138 160 138C170 138 170 119 180 119" stroke="url(#wave)" stroke-width="10" stroke-linecap="round" stroke-linejoin="round"/>
  <circle cx="160" cy="90" r="28" fill="#225FA7" fill-opacity="0.15"/>
  <circle cx="160" cy="90" r="20" fill="#F8FCFF"/>
  <circle cx="160" cy="90" r="10" fill="#2FC7A4"/>
  <path d="M160 68V112" stroke="#225FA7" stroke-width="6" stroke-linecap="round"/>
  <path d="M138 90H182" stroke="#225FA7" stroke-width="6" stroke-linecap="round"/>
</svg>
